<svg viewBox="0 0 24 24" xmlns="http://www.w3.org/2000/svg" aria-hidden="true" fill="currentColor"><path d="M18.8051 8.24999V18C18.8051 18.1989 18.7261 18.3897 18.5854 18.5303C18.4448 18.671 18.254 18.75 18.0551 18.75H8.3051C8.10619 18.75 7.91543 18.671 7.77477 18.5303C7.63412 18.3897 7.5551 18.1989 7.5551 18C7.5551 17.8011 7.63412 17.6103 7.77477 17.4697C7.91543 17.329 8.10619 17.25 8.3051 17.25H16.2448L5.52448 6.53062C5.38375 6.38988 5.30469 6.19901 5.30469 5.99999C5.30469 5.80097 5.38375 5.6101 5.52448 5.46936C5.66521 5.32863 5.85608 5.24957 6.0551 5.24957C6.25413 5.24957 6.445 5.32863 6.58573 5.46936L17.3051 16.1897V8.24999C17.3051 8.05108 17.3841 7.86031 17.5248 7.71966C17.6654 7.57901 17.8562 7.49999 18.0551 7.49999C18.254 7.49999 18.4448 7.57901 18.5854 7.71966C18.7261 7.86031 18.8051 8.05108 18.8051 8.24999Z"/></svg>
