<svg width="24" height="24" viewBox="0 0 24 24" fill="none" xmlns="http://www.w3.org/2000/svg">
<path d="M12.25 2C10.3216 2 8.43657 2.57183 6.83319 3.64317C5.22982 4.71451 3.98013 6.23726 3.24218 8.01884C2.50422 9.80042 2.31114 11.7608 2.68735 13.6521C3.06355 15.5434 3.99215 17.2807 5.35571 18.6443C6.71928 20.0079 8.45656 20.9365 10.3479 21.3127C12.2392 21.6889 14.1996 21.4958 15.9812 20.7578C17.7627 20.0199 19.2855 18.7702 20.3568 17.1668C21.4282 15.5634 22 13.6784 22 11.75C21.9973 9.16498 20.9692 6.68661 19.1413 4.85872C17.3134 3.03084 14.835 2.00273 12.25 2ZM20.5 11.75C20.5019 13.6789 19.8245 15.5469 18.5866 17.0262L6.97375 5.4125C8.17844 4.41029 9.64365 3.77191 11.1979 3.57207C12.7522 3.37223 14.3312 3.61919 15.7503 4.28406C17.1693 4.94892 18.3696 6.00418 19.2108 7.32636C20.0519 8.64854 20.4991 10.1829 20.5 11.75ZM4 11.75C3.99808 9.82106 4.67552 7.95306 5.91344 6.47375L17.5263 18.0875C16.3216 19.0897 14.8564 19.7281 13.3021 19.9279C11.7478 20.1278 10.1688 19.8808 8.74975 19.2159C7.33072 18.5511 6.1304 17.4958 5.28924 16.1736C4.44809 14.8515 4.0009 13.3171 4 11.75Z" fill="#707070"/>
</svg>
